<svg width="5rem" xmlns="http://www.w3.org/2000/svg" viewBox="0 0 60.92 106.27"><defs><style>.cls-1{fill:#41342c;}.cls-2{fill:#261d18;}.cls-3{fill:#f1d6b3;}.cls-4{fill:#ecac83;}.cls-5,.cls-6{fill:#383b3a;}.cls-6{opacity:0.5;}.cls-7{fill:#fcd456;}.cls-8{fill:#2c302c;}.cls-9{fill:#1a201e;}.cls-10{fill:#eed3b1;stroke:#bf8362;stroke-miterlimit:10;stroke-width:0.3px;}</style></defs><g id="图层_2" data-name="图层 2"><g id="图层_1-2" data-name="图层 1"><path class="cls-1" d="M53.41,20.08c0,.08,0,.16,0,.25S53.42,20.23,53.41,20.08Z"/><path class="cls-1" d="M48,15.22a23.68,23.68,0,0,0-1.42-2.34,6.94,6.94,0,0,1,1.3,1.63,20,20,0,0,1,3.9,2.4,4.68,4.68,0,0,1,1.63,3.17c-.13-4.75-4.9-5.62-5.41-5.93s-1.07-1.3-2.07-2.15a9.41,9.41,0,0,0-2.51-2.35c-2.84-1.67-7-1.37-7-1.37h0A11.62,11.62,0,0,0,28.31,5a9,9,0,0,0-8.46,6.05s-4.72,1.18-3.32,9.22,11.94,8.19,15.85,8.46,6.7-2.57,8.68-2.14a6.53,6.53,0,0,1,3.32,2.14L46.66,27A2.31,2.31,0,0,0,46,25.84c-.45-.38.34.23,1.07.81l3.24-2.56A3.69,3.69,0,0,0,50,22.9l1.07.6,1.59-1.27s-.26-3.53-1.5-4.87A8.24,8.24,0,0,0,48,15.22ZM37.2,8.94A16.06,16.06,0,0,1,43,10.18a6.42,6.42,0,0,1,1.79,1.06h0a11.41,11.41,0,0,0-4.46-.63c-.37-.09-.75-.19-1.13-.32A6.55,6.55,0,0,1,37.2,8.94Zm7.4,3a3.52,3.52,0,0,0-1-.56,9.13,9.13,0,0,1,1.38.43,4.51,4.51,0,0,1,.92.5,12.75,12.75,0,0,1,1.75,2.78c-.17,0-.34-.12-.5-.15C45.83,14.68,45.78,12.91,44.6,12Z"/><path class="cls-2" d="M45.31,25.31c-.42-.35.32.23,1,.77l3-2.41a3.44,3.44,0,0,0-.31-1.12l1,.56,1.51-1.19s-.26-3.33-1.42-4.59a7.46,7.46,0,0,0-3.78-2.27c-1.21-.25-1.26-1.91-2.37-2.82s-3-.86-5.09-1.56-4.24-5-10.24-4.95a8.45,8.45,0,0,0-8,5.7s-4.43,1.11-3.12,8.68,11.24,7.71,14.92,8,6.31-2.42,8.17-2a6.12,6.12,0,0,1,3.13,2l2.14-1.69A2.18,2.18,0,0,0,45.31,25.31Z"/><path class="cls-3" d="M49.57,62.8a7.83,7.83,0,0,1,0,4.45,7.38,7.38,0,0,1-3.32,3.43l-1.87-6.16Z"/><path class="cls-4" d="M44.38,64.53l1.87,6.15a8.84,8.84,0,0,0,2-1.5,10.8,10.8,0,0,0,.64-2,9.35,9.35,0,0,0-.18-4.07l-4.27,1.41Z"/><path class="cls-3" d="M17.48,2.52l-1,1.17-1.29.53h0a18.46,18.46,0,0,1-4.4-1.62A9.23,9.23,0,0,1,8.05.23.24.24,0,0,1,8.12.11c.36-.4,2.17.44,2.17.44s4,1.65,5.43,1.33a4.81,4.81,0,0,0,1.76-.72C18.53,1,17.48,2.52,17.48,2.52Z"/><path class="cls-4" d="M15.24,4.21h0l-1.72.71a17.48,17.48,0,0,1-3.58-2C8.24,1.64,7.83.69,8.05.23a9.23,9.23,0,0,0,2.79,2.36A18.46,18.46,0,0,0,15.24,4.21Z"/><path class="cls-5" d="M29.5,28.89,27.81,22c.48,0,1.64-.12,2.67-.17Z"/><path class="cls-6" d="M60.66,51.09a43.36,43.36,0,0,1-5,8.71c-3.43,4.4-9.43,8.36-9.43,8.36l.64,6.29a1.3,1.3,0,0,1-.95,1.4c-3.18.84-12.79,3.18-20.36,2.92-5.64-.2-8.31-1.56-9.53-2.58A2.47,2.47,0,0,1,15.19,74c.4-3.1,1.59-12.45,2.12-17.93.64-6.64,4-21.53,4-21.53S15.7,31.2,9.48,26.8a33.2,33.2,0,0,1-9-10.18,1.79,1.79,0,0,1,.09-1.9A28.15,28.15,0,0,1,8.63,6.87a21.85,21.85,0,0,1,7.82-3.11,1.36,1.36,0,0,1,1.53,1,25,25,0,0,1,.72,5.78c.11,4.71.75,7.18,3.11,9.85A5.25,5.25,0,0,0,24.39,22l5,21.09a.37.37,0,0,0,.72,0l4.52-19.77A105.41,105.41,0,0,1,46.88,33.66c3.56,3.73,10.31,11,13.2,14.07A3.09,3.09,0,0,1,60.66,51.09Z"/><path class="cls-7" d="M34.61,23.31,30.09,43.08a.37.37,0,0,1-.72,0L24.39,22a6.29,6.29,0,0,0,3.2,0l.22,0,1.69,6.93,1-7.1a12.68,12.68,0,0,1,1.72,0A13.79,13.79,0,0,1,34.61,23.31Z"/><line class="cls-7" x1="1.25" y1="17.92" y2="20.43"/><path class="cls-5" d="M10.62,10.53c-.72.43-1.44.89-2.15,1.38a45.08,45.08,0,0,0-7.21,6c-.32-.51-.59-1-.79-1.3a1.79,1.79,0,0,1,.09-1.9A28.15,28.15,0,0,1,8.63,6.87c.52-.32,1-.6,1.51-.86C10.24,7.39,10.39,8.92,10.62,10.53Z"/><path class="cls-5" d="M46.23,68.19l.64,6.26a1.3,1.3,0,0,1-.95,1.4c-3.18.84-12.79,3.18-20.36,2.92-5.64-.2-8.31-1.56-9.53-2.58A2.47,2.47,0,0,1,15.19,74c.4-3.1,1.59-12.45,2.12-17.93.64-6.64,4-21.53,4-21.53S15.7,31.2,9.48,26.8a30.18,30.18,0,0,1-6.1-5.89s3.26-4.55,7-6.43l.82-.41c1.41,7.13,4.34,15.06,10.38,19.7,2.48,1.9,4.71,3.47,6.7,4.76h0l1.07,4.55a.37.37,0,0,0,.72,0l.69-3c6.64,4,9.88,4.42,9.88,4.42l5,24.1Z"/><path class="cls-5" d="M60.66,51.09a43.36,43.36,0,0,1-5,8.71A39,39,0,0,1,49.18,66L39.3,26.91a84.39,84.39,0,0,1,7.58,6.75c3.56,3.73,10.31,11,13.2,14.07A3.09,3.09,0,0,1,60.66,51.09Z"/><path class="cls-7" d="M18.69,10.19s-4.55,2.42-8.3,4.29-7,6.43-7,6.43c-.87-1.11-1.58-2.14-2.12-3a45.08,45.08,0,0,1,7.21-6,59.14,59.14,0,0,1,9.9-5.3A29.79,29.79,0,0,1,18.69,10.19Z"/><path class="cls-7" d="M57.83,45.32s-3.27,4.47-5.6,7.12a75.56,75.56,0,0,1-7.87,6.91L45,64.57a61.18,61.18,0,0,0,8.92-8,87.34,87.34,0,0,0,6.44-8.46Z"/><path class="cls-8" d="M38.77,77.47c-2,.37-4.13.72-6.33,1a49.09,49.09,0,0,1-6.89.33,26.3,26.3,0,0,1-5.44-.7A10.18,10.18,0,0,1,16,76.19a2.46,2.46,0,0,1-.63-.87,12.41,12.41,0,0,1,4.44-1.13,12.19,12.19,0,0,1,1.22,0A42.28,42.28,0,0,1,32.58,76c1.36.41,2.69.86,4,1.36V54.94Z"/><path class="cls-3" d="M32.14,83.8C32.07,85,32,86.13,32,87a132.3,132.3,0,0,1-2.3,15.43c-.7,3.21-2.9,1-3.22-.81-.25-1.42-.4-4.58-.46-5.89,0,1.42.06,5-.45,6.59-.64,2-2,2.19-2.95,1.28S21,90.23,20.7,86.05c-.14-1.78-.34-4.56-.53-7.17C20.35,78.91,27.59,81.91,32.14,83.8Z"/><path class="cls-4" d="M32.58,76c0,.76-.09,1.58-.14,2.43-.1,1.77-.21,3.66-.3,5.35-4.55-1.89-11.79-4.89-12-4.92l-.06-.8c-.1-1.46-.2-2.83-.28-3.88a12.19,12.19,0,0,1,1.22,0A42.28,42.28,0,0,1,32.58,76Z"/><path class="cls-9" d="M21.57,98a5.31,5.31,0,0,0,.79,3.28,7,7,0,0,0,1.79,2.36,5.82,5.82,0,0,0,1.18-2.41c.23-1,.64-3.11.64-3.11v4.42a4.49,4.49,0,0,1-1.52,3.69,5.17,5.17,0,0,1-2.2-1.28A5,5,0,0,1,21,100.78,8.17,8.17,0,0,1,21.57,98Z"/><path class="cls-9" d="M30.38,98a5.4,5.4,0,0,1-.79,3.28,7.09,7.09,0,0,1-1.8,2.36,5.82,5.82,0,0,1-1.18-2.41c-.23-1-.64-3.11-.64-3.11s0,2.94,0,4.42a4.5,4.5,0,0,0,1.53,3.69A5.16,5.16,0,0,0,29.69,105,5,5,0,0,0,31,100.78,8.17,8.17,0,0,0,30.38,98Z"/><path class="cls-8" d="M18.37,6.61a60.6,60.6,0,0,0-7.75,3.92c-.23-1.61-.38-3.14-.48-4.52a20.51,20.51,0,0,1,6.31-2.25,1.36,1.36,0,0,1,1.53,1A16.42,16.42,0,0,1,18.37,6.61Z"/><path class="cls-8" d="M28.29,38.53c-2-1.29-4.22-2.86-6.7-4.76-6-4.64-9-12.57-10.38-19.7h0c3.56-1.79,7.48-3.87,7.48-3.87s0,.22,0,.33c.11,4.71.75,7.18,3.11,9.85A5.25,5.25,0,0,0,24.39,22Z"/><path class="cls-8" d="M49.18,66l-.22.17-1.5,1.12-.24.17-.44.32-.23.16-.32.21v0l-.53.4-5-24.1s-3.24-.45-9.88-4.42l3.83-16.76c1.28.92,2.94,2.19,4.69,3.6Z"/><path class="cls-8" d="M46.55,68l-.32.24v0Z"/><path class="cls-4" d="M28.32,8.36s.32-1.61.92-1.61S30.45,8.2,30.45,8.2Z"/><path class="cls-3" d="M36.87,13.06h0c-.75-2.94-4-5.15-7.78-5.15-4.07,0-7.42,2.49-7.89,5.71a1,1,0,0,0-.41,0,1.53,1.53,0,0,0-.92,1.9c.16.93.85,1.58,1.52,1.46a1,1,0,0,0,.33-.13,7.82,7.82,0,0,0,6,3.95h-.05s.38,3.65,1.55,3.65,1.29-3.65,1.29-3.65h0a7.7,7.7,0,0,0,6.18-4.36.84.84,0,0,0,.27,0c.69,0,1.25-.76,1.25-1.7S37.56,13.06,36.87,13.06Z"/><path class="cls-4" d="M21.67,16.46c-.34.06-1,0-1.24-1.06a1.07,1.07,0,0,1,.82-1.34"/><path class="cls-4" d="M36.3,15.94c.35.06,1,0,1.25-1.06a1.06,1.06,0,0,0-.82-1.34"/><path class="cls-10" d="M27.62,11.13S27.7,12,29,12a1.38,1.38,0,0,0,1.5-1"/><path class="cls-4" d="M24.61,11.25c.54-.65,1.53-.8,1.06-1.19a1.38,1.38,0,0,0-1.82.47,1.37,1.37,0,0,0-.11,1.88C24.22,12.79,24.08,11.89,24.61,11.25Z"/><path class="cls-4" d="M33.65,11c-.53-.65-1.52-.8-1-1.18a1.35,1.35,0,0,1,1.81.47,1.36,1.36,0,0,1,.11,1.87C34.05,12.53,34.18,11.62,33.65,11Z"/><path class="cls-4" d="M30.46,20.79H27.62s.07.65.23,1.4l2.32,1A10.53,10.53,0,0,0,30.46,20.79Z"/><path class="cls-2" d="M29.59,12.56a4.37,4.37,0,0,1,.4.25A2.13,2.13,0,0,0,29.59,12.56Z"/><path class="cls-2" d="M28,12.34a2.86,2.86,0,0,1,1.63.22c-1.55-.87-3.7-.42-5.2-.75s-2.05-1.05-2.05-1.05l-.4.57,0,0-.48.22a16.6,16.6,0,0,0,2.26,1.19,15.19,15.19,0,0,0,3.51.65,5.23,5.23,0,0,1,1.57.48,12.92,12.92,0,0,0-3.35-1.09C26.23,12.73,27,12.46,28,12.34Zm-5.35-.54a3.85,3.85,0,0,1-.5-.31Z"/><path class="cls-2" d="M28.78,13.85c.12.07.25.13.36.21A2.58,2.58,0,0,0,28.78,13.85Z"/></g></g></svg>